
        <svg xmlns="http://www.w3.org/2000/svg" xmlns:xlink="http://www.w3.org/1999/xlink" version="1.1" width="3266.6666666666665" height="1460.1334771529116" viewBox="0 0 3266.6666666666665 1460.1334771529116">
			
			<g transform="scale(13.333333333333334) translate(10, 10)">
				<defs id="SvgjsDefs2684"/><g id="SvgjsG2685" featureKey="v37d4h-0" transform="matrix(1.1064278009665454,0,0,1.1064278009665454,-2.6554268278368864,-11.174921211830819)" fill="#000"><path xmlns="http://www.w3.org/2000/svg" d="M17.9,34.4c22.9,12,27.1,23.2,27.1,23.2s-2.9,2.9-4.5,5.2C55.1,48.9,72.9,50.1,73.9,50c1-0.1,1.6,1.9,0,1.9  c-6.4,0.5-20.5,3.2-27,10.8c-5.9,6.8-3.6,24.4-3,27.9c0.1,0.4-0.1,0.4-0.4,0.4c-2.2,0-14.8,0-15.2,0c-0.4,0-0.5-0.2-0.5-0.4  c-0.1-6.1,8.2-13.3,7.4-29.1C34.3,45.3,17,35.9,17,35.9C16.4,35.5,17,33.9,17.9,34.4z M15.1,18.4c0,0-3.3,6.1-2.4,10.2  c0.8,3.6,3.2,5,6,3.7c1.3-0.7-1.5-7.8-2.3-9.7c3.4,5.3,2.7,9.1,3.7,9.2c2.8,0,4.4-2.8,2.9-6.6C21.5,21.3,15.1,18.4,15.1,18.4z   M4.3,38.6c0,0,4.5,3.3,7.7,3c2.9-0.3,4.3-2,3.5-4.4c-0.4-1.1-6.3,0.3-7.9,0.8c4.5-2.2,7.4-1.1,7.6-1.9c0.3-2.2-1.7-3.7-4.9-3  C7.2,33.9,4.3,38.6,4.3,38.6z M15.3,49.4c0,0,5-0.6,7-2.8c1.8-2,1.6-4-0.3-5.1c-1-0.5-4,4.1-4.8,5.4c1.7-4.3,4.3-5.4,3.9-6  c-1.1-1.7-3.5-1.4-5.1,1C14.3,44.4,15.3,49.4,15.3,49.4z M2.4,51.9c0,0,5.3,1.2,8.1-0.3c2.5-1.4,3.1-3.5,1.5-5.3  c-0.8-0.8-5.5,2.7-6.8,3.7c3.2-3.7,6.3-3.9,6.1-4.7c-0.6-2.1-3-2.7-5.5-0.8C3.2,46.6,2.4,51.9,2.4,51.9z M2.4,26  c0,0,1.4,4.1,3.6,5.3c2,1.1,3.6,0.6,4.2-1.2c0.2-0.9-4.2-2.5-5.4-3c3.8,0.6,5.3,2.6,5.7,2.1c1.2-1.3,0.5-3.2-1.8-4.1  C6.4,24.3,2.4,26,2.4,26z M19,59.3c0,0,6,0.2,8.8-2.1c2.5-2.1,2.6-4.5,0.5-6.1c-1.1-0.7-5.4,4.2-6.6,5.6c2.7-4.8,6-5.7,5.6-6.5  c-1.1-2.2-3.9-2.3-6.2,0.3C18.7,53.2,19,59.3,19,59.3z M35.5,24.2c0,0-6.9,2.8-8.9,6.8c-1.8,3.6-0.7,6.4,2.5,7.2  c1.5,0.3,4-7.5,4.7-9.7c-0.7,6.8-4,9.4-3.1,10.1c2.3,1.9,5.5,0.6,6.9-3.5C38.9,30.9,35.5,24.2,35.5,24.2z M26.9,10.4  c0,0-3.7,3.8-3.9,7c-0.2,2.8,1.3,4.4,3.7,4c1.1-0.3,0.5-6.1,0.3-7.7c1.4,4.6,0.1,7.3,0.8,7.5c2.1,0.6,3.8-1.2,3.5-4.3  C31,13.8,26.9,10.4,26.9,10.4z M46.7,36.8c0,0-5.3-0.1-7.8,1.9c-2.2,1.8-2.3,4-0.4,5.4c0.9,0.6,4.8-3.7,5.8-5c-2.4,4.2-5.3,5-5,5.7  c1,1.9,3.4,2,5.5-0.3C47,42.2,46.7,36.8,46.7,36.8z M51.9,47.6c0,0-4.1-1.5-6.5-0.5c-2.2,0.9-2.8,2.5-1.7,4.1  c0.6,0.7,4.7-1.7,5.8-2.4c-2.9,2.7-5.4,2.6-5.3,3.2c0.3,1.7,2.2,2.4,4.4,1.2C50.8,51.8,51.9,47.6,51.9,47.6z M52.5,22.9  c0,0-6.6-0.2-9.7,2.3c-2.7,2.3-2.9,4.9-0.5,6.7c1.2,0.8,6-4.6,7.2-6.1c-3,5.2-6.6,6.2-6.2,7.1c1.2,2.4,4.3,2.5,6.8-0.4  C52.9,29.5,52.5,22.9,52.5,22.9z M41,10.1c0,0-5.3,3.7-6.2,7.5c-0.8,3.4,0.6,5.5,3.5,5.6c1.4-0.1,2-7.1,2.1-9.1  c0.7,5.9-1.5,8.8-0.7,9.2c2.3,1.2,4.8-0.5,5.2-4.3C45.1,15.2,41,10.1,41,10.1z M69.8,47.8c0,0.1,0.1,0.6,0.1,0.7l0,0.6L69.2,49h-0.4  l0-0.7c0-0.2-0.1-0.3-0.1-0.3l0-0.1L67.9,48c-0.4,0-0.8,0.1-0.8,0.1c0,0,0,0.7,0.2,1.3c0,0.1,0,0.1-0.3,0.1l-0.7-0.1l-0.1-1L66.1,48  l-0.3,0c-6.9-0.4-11-5.7-12.1-7.1c-1.1-1.4-2-3.2-2.3-4.8c-0.1-0.6,0.1-1.4,0.4-1.4c0.2,0,0.2,0.1,0.5,0.6c0.5,1,1.3,1.6,2.3,1.8  c1.2,0.2,2.4-0.1,3.3-0.9c0.5-0.5,0.6-0.8,0.7-1.3c0.1-0.5,0.3-1.1,0.4-1.4c0.7-1.9,1.9-3.4,3.3-4.4c0.3-0.2,0.4-0.3,0.3-0.4  c0-0.1-0.4-0.5-0.8-0.9c-0.9-1-0.9-1.1-0.9-1.3c0-0.3,0.1-0.4,0.3-0.5c0.2-0.1,0.3-0.1,1.5,0.5c0.5,0.3,1,0.4,1,0.4  c0,0-0.1-0.2-0.3-0.5c-0.3-0.5-0.4-0.8-0.2-1c0.1-0.1,0.2-0.2,0.4-0.2c0.3,0,0.3,0,1.2,0.6c0.4,0.3,0.8,0.6,0.9,0.6l0.2,0.1l0-0.4  c0-0.4,0-0.7,0.2-0.8c0.2-0.1,0.5,0.1,1.8,1.2l1.2,1l0.5,0.1c1.1,0.3,2.1,0.7,3.1,1.3c0.7,0.4,1,0.7,1.7,1.4l0.6,0.6l1.7-0.1  c1.8-0.1,2-0.1,2.1,0.1c0.1,0.2,0.1,0.4-0.1,0.6c-0.1,0.1-0.5,0.7-1,1.4l-0.9,1.2l0.2,0.5c0.6,1.8,0.7,3.8,0.3,5.8  c-0.4,2.1-1,3.3-2.4,4.7c-1.4,1.4-2.9,2.3-4.7,2.6L69.8,47.8z M71.1,31.2c-0.2,0.5,0.1,1.7,0.5,2.1c1,0.8,1.3-0.9,0.4-2  C71.7,31,71.3,30.9,71.1,31.2z M87.1,19.8c0,2.9-0.1,5.8,0,8.7c-0.2,0.1-0.4,0-0.6,0c-1-0.2-2.2,0.1-2.8,1c-0.5,0.6-0.4,1.6,0.1,2.2  c0.8,0.9,2.2,1,3.2,0.7c0.7-0.3,1.4-0.9,1.5-1.7c0.1-2.7,0-5.3,0-8c2.4-0.3,4.9-0.6,7.3-0.8c0.1,1.9,0.1,3.8,0,5.7  c-1-0.3-2.3-0.2-3.1,0.5c-0.7,0.6-0.8,1.8-0.2,2.5c1,1.1,2.8,1.2,4,0.3c0.5-0.3,0.8-0.9,0.8-1.5c0-3.6,0-7.1,0-10.7  c-0.5,0-1.1,0.1-1.6,0.1C92.9,19.2,90,19.5,87.1,19.8z"/></g><g id="SvgjsG2686" featureKey="UxBHKT-0" transform="matrix(0.8984660436154155,0,0,0.8984660436154155,124.10153352796259,33.679359467988995)" fill="#000"><path d="M9.94 16.64 c0.02 0.96 0 1.94 -0.06 2.9 c0 0.08 -0.06 0.16 -0.12 0.2 c-0.08 0.06 -0.18 0.1 -0.28 0.1 c-1.24 0.2 -2.74 0.3 -3.94 -0.1 c-2.7 -0.92 -4.54 -3.94 -4.54 -7.4 c0 -3.74 2.68 -7.38 6.58 -7.52 c0.52 -0.02 2.3 -0.1 2.24 0.78 c-0.04 0.64 0.02 1.16 0 1.82 c0 0.12 -0.08 0.2 -0.2 0.18 c-1.14 -0.14 -2.44 -0.5 -3.54 0.02 c-0.92 0.44 -1.56 1.38 -1.92 2.3 c-0.64 1.52 -0.5 3.28 -0.06 4.84 c0.34 1.24 1.08 2.7 2.56 2.74 c0.08 0.02 0.84 0.06 0.84 -0.02 l-0.06 -2.56 c-0.02 -0.12 -0.02 -0.24 -0.04 -0.36 s-0.1 -0.16 -0.22 -0.18 c-0.32 0 -0.32 -0.02 -0.64 -0.02 c-0.74 0 -0.58 -0.5 -0.6 -0.66 c-0.02 -0.3 0 -0.58 -0.02 -0.88 c-0.02 -0.28 0.06 -0.5 0.34 -0.54 l0.24 0 c1.04 -0.06 2.1 0.02 3.2 0.02 c0.16 0 0.24 0.2 0.24 0.38 c0.02 0.2 0.02 0.34 0.02 0.54 c0.06 0.98 -0.06 1.98 -0.04 2.96 c0.02 0.16 0.02 0.3 0.02 0.46 z M14.46 18.5 c0 -0.52 0 -3.8 0.02 -4.06 c0.02 -0.06 0.06 -0.18 0.14 -0.18 s0.12 0.04 0.14 0.1 c0.8 1.56 1.5 3.12 2.22 4.64 c0.1 0.22 0.32 0.86 0.38 0.92 c0.08 0.12 0.22 0.08 0.34 0.08 l2.2 0.02 c0.26 0 0.32 -0.16 0.26 -0.38 c-0.16 -0.6 -1.3 -2.72 -1.56 -3.24 c-0.18 -0.4 -1.38 -2.72 -1.42 -2.9 c-0.04 -0.08 0.26 -0.22 0.3 -0.28 c0.96 -0.86 1.82 -1.74 2 -3.08 c0.2 -1.32 -0.1 -2.76 -0.96 -3.82 c-0.66 -0.78 -1.52 -1.24 -2.54 -1.3 c-0.62 -0.04 -1.22 0.02 -1.84 0 c-0.54 -0.02 -0.92 -0.02 -1.6 -0.02 c-0.32 0 -0.52 0.18 -0.54 0.52 l0 0.24 c-0.04 1.54 0 3.08 0.02 4.6 c0 2.32 -0.04 8.44 -0.04 9.32 c0 0.26 0.04 0.32 0.28 0.32 c0.14 0 0.3 0.02 0.44 0.02 c0.56 0 0.9 -0.02 1.48 -0.02 c0.44 0 0.28 -0.72 0.28 -1.5 z M14.46 10.7 l0.02 -2.02 c0.02 -0.3 -0.08 -0.9 0.2 -1.12 c0.38 -0.28 1.16 0 1.5 0.24 c1 0.68 0.92 2.36 0.38 3.3 c-0.26 0.44 -0.7 0.7 -1.2 0.84 c-0.3 0.08 -0.86 0.18 -0.88 -0.3 c0 -0.32 -0.02 -0.94 -0.02 -0.94 z M22.2 15.9 l-0.02 0 c0 0.5 -0.02 1.02 0 1.54 c0.02 0.64 0.06 1.28 0.1 1.92 c0 0.22 0.06 0.28 0.26 0.32 c0.42 0.1 0.82 0.12 1.24 0.12 c1.08 -0.04 2.16 0.04 3.24 0 c0.44 -0.02 0.64 0.02 1.08 -0.06 c0.4 -0.08 0.54 -0.3 0.54 -0.9 c-0.04 -0.38 -0.02 -0.54 -0.02 -1 c0 -0.66 -0.46 -0.88 -0.86 -0.86 c-0.28 0.02 -1.62 -0.02 -2.16 -0.02 c-0.9 0.02 -0.76 0.14 -0.76 -0.8 c0 -0.76 0.02 -1.74 0.02 -2.52 c0 -0.42 0.04 -0.56 0.44 -0.56 l2.5 0 c0.4 0.06 0.68 -0.22 0.68 -0.64 s0.04 -0.44 0.04 -0.86 l-0.06 -0.6 c-0.04 -0.34 -0.16 -0.46 -0.5 -0.46 c-0.22 0 -0.44 0.02 -0.66 0.04 c-0.86 0.06 -1.26 -0.06 -2.1 0 c-0.28 0 -0.32 -0.04 -0.34 -0.3 c-0.08 -0.78 0 -1.64 0.08 -2.42 c0.02 -0.32 0.1 -0.38 0.4 -0.4 l2.82 -0.02 c0.38 -0.04 0.5 -0.02 0.48 -0.4 c-0.04 -0.58 0.02 -1.18 -0.04 -1.76 c-0.04 -0.32 -0.14 -0.38 -0.5 -0.38 c-0.6 0.02 -0.74 0.02 -1.34 0.06 c-0.6 0.02 -3 0.02 -3.58 0.02 c-0.84 0 -0.9 -0.06 -0.92 0.96 c-0.04 0.8 -0.02 1.62 -0.02 2.44 c0 1.4 -0.08 6.42 -0.04 7.54 z M30.66 15.9 l-0.02 0 c0 0.5 -0.02 1.02 0 1.54 c0.02 0.64 0.06 1.28 0.1 1.92 c0 0.22 0.06 0.28 0.26 0.32 c0.42 0.1 0.82 0.12 1.24 0.12 c1.08 -0.04 2.16 0.04 3.24 0 c0.44 -0.02 0.64 0.02 1.08 -0.06 c0.4 -0.08 0.54 -0.3 0.54 -0.9 c-0.04 -0.38 -0.02 -0.54 -0.02 -1 c0 -0.66 -0.46 -0.88 -0.86 -0.86 c-0.28 0.02 -1.62 -0.02 -2.16 -0.02 c-0.9 0.02 -0.76 0.14 -0.76 -0.8 c0 -0.76 0.02 -1.74 0.02 -2.52 c0 -0.42 0.04 -0.56 0.44 -0.56 l2.5 0 c0.4 0.06 0.68 -0.22 0.68 -0.64 s0.04 -0.44 0.04 -0.86 l-0.06 -0.6 c-0.04 -0.34 -0.16 -0.46 -0.5 -0.46 c-0.22 0 -0.44 0.02 -0.66 0.04 c-0.86 0.06 -1.26 -0.06 -2.1 0 c-0.28 0 -0.32 -0.04 -0.34 -0.3 c-0.08 -0.78 0 -1.64 0.08 -2.42 c0.02 -0.32 0.1 -0.38 0.4 -0.4 l2.82 -0.02 c0.38 -0.04 0.5 -0.02 0.48 -0.4 c-0.04 -0.58 0.02 -1.18 -0.04 -1.76 c-0.04 -0.32 -0.14 -0.38 -0.5 -0.38 c-0.6 0.02 -0.74 0.02 -1.34 0.06 c-0.6 0.02 -3 0.02 -3.58 0.02 c-0.84 0 -0.9 -0.06 -0.92 0.96 c-0.04 0.8 -0.02 1.62 -0.02 2.44 c0 1.4 -0.08 6.42 -0.04 7.54 z M47.620000000000005 5.460000000000001 c0.06 0.28 0.02 13.6 0.02 13.94 c0 0.6 -0.22 0.58 -0.62 0.58 c-0.6 0 -1.44 0.1 -1.62 -0.1 c-0.16 -0.14 -3.12 -7.28 -3.54 -8.18 c-0.04 -0.08 -0.14 -0.28 -0.22 -0.24 c-0.1 0.04 -0.06 0.18 -0.06 0.26 c-0.02 0.7 0.1 6.74 0.1 7.7 c0 0.48 -0.02 0.56 -0.42 0.56 l-1 0 c-0.26 0 -0.58 -0.02 -0.84 0.02 c-0.2 0 -0.3 -0.06 -0.32 -0.26 l0 -1.58 c0.04 -1.68 0 -11.64 0 -12.38 c0 -0.64 0.18 -0.76 0.82 -0.76 c0.44 -0.02 0.88 -0.02 1.32 -0.02 c0.14 0 0.22 0.02 0.3 0.2 c0.54 1.26 2.84 7.04 3.2 7.74 c0.06 0.14 0.28 0.7 0.4 0.76 l0.02 0 c0.08 -0.08 0.06 -0.48 0.06 -0.6 c0 -0.3 -0.16 -7.32 -0.16 -7.46 c0 -0.2 -0.06 -0.38 0.04 -0.52 c0.06 -0.08 0.32 -0.1 0.42 -0.12 c0.56 -0.04 1.22 0.02 1.78 0 c0.28 0 0.26 0.2 0.32 0.46 z M55.5 4.98 c-0.02 0 -0.18 -0.02 -0.34 -0.02 c-0.28 0 -0.42 0.1 -0.46 0.36 c-0.02 0.14 -0.02 0.3 0.02 0.42 c0.16 0.62 3.26 13.44 3.42 14 c0.06 0.24 0.08 0.24 0.32 0.24 l1.62 0 l0.12 0 c0.26 0 0.28 -0.36 0.34 -0.7 c0.4 -2.06 0.9 -4.1 1.38 -6.08 c0.02 -0.12 0.06 -0.24 0.1 -0.34 c0.02 -0.04 0.06 -0.06 0.08 -0.06 c0.04 0 0.08 0.02 0.1 0.06 c0.1 0.24 1.3 5.92 1.54 6.9 c0.04 0.12 0.1 0.22 0.26 0.22 l1.6 0 c0.3 0 0.5 -0.16 0.56 -0.46 c0.26 -1.32 0.6 -2.8 0.92 -4.1 c0.4 -1.6 0.82 -3.18 1.24 -4.78 c0.32 -1.28 0.66 -2.68 1.06 -3.94 c0.14 -0.42 0.66 -1.68 -0.22 -1.68 c-0.44 0 -0.82 -0.04 -1.26 -0.02 c-0.14 0 -0.28 0 -0.42 0.02 c-0.22 0 -0.38 0.12 -0.46 0.32 c-0.06 0.2 -0.16 0.42 -0.22 0.62 c-0.3 1.28 -0.58 2.74 -0.94 4 c-0.26 0.94 -0.54 1.86 -0.76 2.8 c0 0.02 -0.08 0.32 -0.16 0.32 c-0.14 0 -0.18 -0.22 -0.22 -0.42 c-0.02 -0.08 -1.02 -5.82 -1.16 -6.94 c-0.04 -0.44 -0.18 -0.7 -0.64 -0.72 l-0.24 0 c-0.52 0.04 -0.8 -0.02 -1.32 0.02 c-0.42 0.02 -0.48 0.06 -0.58 0.44 c-0.02 0.08 -0.02 0.18 -0.04 0.28 c-0.16 0.88 -1.2 6.56 -1.34 7.24 c0 0.04 -0.02 0.12 -0.08 0.12 c-0.08 0 -0.1 -0.1 -0.12 -0.14 c-0.02 -0.08 -1.76 -7.42 -1.82 -7.6 c-0.08 -0.24 -0.26 -0.38 -0.54 -0.38 c-0.44 0.02 -0.78 0 -1.34 0 z M82.19999999999999 8.68 c0.42 1.24 0.52 2.58 0.52 3.9 c0 1.1 -0.2 2.16 -0.48 3.22 c-0.36 1.26 -0.96 2.4 -2.04 3.14 c-0.8 0.58 -1.64 0.96 -2.62 1.06 c-0.14 0 -0.26 0.02 -0.4 0.02 c-0.12 0 -0.24 -0.02 -0.38 -0.02 c-0.98 -0.1 -1.82 -0.48 -2.64 -1.06 c-1.06 -0.74 -1.68 -1.88 -2.02 -3.14 c-0.3 -1.06 -0.48 -2.12 -0.48 -3.22 c0 -1.32 0.1 -2.66 0.52 -3.9 c0.74 -2.14 2.78 -3.66 5 -3.7 c2.22 0.04 4.26 1.56 5.02 3.7 z M80.25999999999999 14.04 c0.2 -1.22 0.12 -2.46 -0.12 -3.68 c-0.24 -1.1 -0.72 -2.18 -1.64 -2.84 c-0.16 -0.12 -0.34 -0.22 -0.52 -0.28 c-0.26 -0.12 -0.54 -0.16 -0.8 -0.16 s-0.52 0.04 -0.78 0.16 c-0.2 0.06 -0.36 0.16 -0.52 0.28 c-0.94 0.66 -1.42 1.74 -1.64 2.84 c-0.24 1.22 -0.32 2.46 -0.12 3.68 c0.2 1.1 0.6 2.58 1.64 3.14 c0.44 0.24 0.92 0.4 1.42 0.42 c0.5 -0.02 1 -0.18 1.44 -0.42 c1.04 -0.56 1.44 -2.04 1.64 -3.14 z M87.2 18.5 c0 -0.52 0 -3.8 0.02 -4.06 c0.02 -0.06 0.06 -0.18 0.14 -0.18 s0.12 0.04 0.14 0.1 c0.8 1.56 1.5 3.12 2.22 4.64 c0.1 0.22 0.32 0.86 0.38 0.92 c0.08 0.12 0.22 0.08 0.34 0.08 l2.2 0.02 c0.26 0 0.32 -0.16 0.26 -0.38 c-0.16 -0.6 -1.3 -2.72 -1.56 -3.24 c-0.18 -0.4 -1.38 -2.72 -1.42 -2.9 c-0.04 -0.08 0.26 -0.22 0.3 -0.28 c0.96 -0.86 1.82 -1.74 2 -3.08 c0.2 -1.32 -0.1 -2.76 -0.96 -3.82 c-0.66 -0.78 -1.52 -1.24 -2.54 -1.3 c-0.62 -0.04 -1.22 0.02 -1.84 0 c-0.54 -0.02 -0.92 -0.02 -1.6 -0.02 c-0.32 0 -0.52 0.18 -0.54 0.52 l0 0.24 c-0.04 1.54 0 3.08 0.02 4.6 c0 2.32 -0.04 8.44 -0.04 9.32 c0 0.26 0.04 0.32 0.28 0.32 c0.14 0 0.3 0.02 0.44 0.02 c0.56 0 0.9 -0.02 1.48 -0.02 c0.44 0 0.28 -0.72 0.28 -1.5 z M87.2 10.7 l0.02 -2.02 c0.02 -0.3 -0.08 -0.9 0.2 -1.12 c0.38 -0.28 1.16 0 1.5 0.24 c1 0.68 0.92 2.36 0.38 3.3 c-0.26 0.44 -0.7 0.7 -1.2 0.84 c-0.3 0.08 -0.86 0.18 -0.88 -0.3 c0 -0.32 -0.02 -0.94 -0.02 -0.94 z M94.92 6.960000000000001 c-0.02 1.24 0.1 10.3 0.08 10.96 c0 0.62 0 1.24 0.02 1.86 c0 0.1 0.06 0.2 0.16 0.2 c1.4 0.06 2.78 -0.06 4.18 -0.04 c0.46 0.02 0.92 0 1.36 0 c0.44 -0.02 0.48 -0.2 0.46 -0.56 c-0.02 -0.56 -0.02 -1.06 -0.02 -1.6 c-0.02 -0.28 -0.18 -0.38 -0.42 -0.38 c-0.82 0.02 -1.64 -0.02 -2.46 0.02 c-0.14 0.02 -0.28 0.02 -0.42 0.02 c-0.24 -0.02 -0.3 -0.08 -0.32 -0.34 l0 -0.3 c-0.06 -1.66 0.06 -3.38 0.06 -5.04 c-0.02 -1.4 0 -2.66 -0.02 -3.9 c0 -0.54 0 -1.08 -0.02 -1.6 c-0.02 -0.32 0 -0.66 -0.08 -0.98 c-0.04 -0.12 -0.1 -0.28 -0.24 -0.28 l-1.88 0 c-0.32 0 -0.42 0.22 -0.44 0.54 l0 1.42 z M111.60000000000001 16.32 c0.12 -0.26 0.22 -0.52 0.32 -0.78 c0.22 -0.64 0.26 -1.3 0.32 -1.96 c0.12 -1.4 0.08 -2.82 -0.28 -4.18 c-0.44 -1.74 -1.56 -3.34 -3.24 -4.08 c-0.76 -0.34 -1.62 -0.38 -2.44 -0.36 c-0.86 0 -1.74 -0.04 -2.6 0.04 c-0.24 0.02 -0.36 0.14 -0.4 0.36 c-0.04 0.24 -0.08 0.48 -0.08 0.7 c0.04 1.22 0 4.84 0.04 5.44 c0.02 0.54 -0.04 1.2 -0.04 1.74 c0.02 1.34 0 2.7 0 4.04 c0 0.56 -0.02 1.1 -0.02 1.66 c0 0.6 -0.22 0.86 1.42 0.86 c1.46 0 2.98 -0.12 4.36 -0.64 c1.28 -0.46 2.08 -1.64 2.64 -2.84 z M105.78 14.24 l0 -2.4 c0 -1.52 0.04 -2.5 -0.02 -3.78 l0 -0.24 c0.02 -0.42 0.08 -0.44 0.52 -0.44 c0.58 -0.02 1 0.12 1.5 0.32 s0.78 0.64 1.04 1.06 c0.5 0.82 0.7 1.72 0.74 2.66 c0.02 0.54 0.04 1.08 0.04 1.62 c0 2.56 -1.5 4.34 -2.82 4.34 c-0.88 0 -1.02 0.06 -1.02 -0.52 c0 -0.6 0.04 -1.2 0.04 -1.8 c-0.02 -0.26 -0.02 -0.54 -0.02 -0.82 z"/></g>
			</g>
		</svg>
	